<svg xmlns="http://www.w3.org/2000/svg" width="211" height="41.167" viewBox="0 0 211 41.167">
  <g id="Six_Sigma_Single_Line" data-name="Six Sigma Single Line" transform="translate(0.004 0.025)">
    <g id="Group_272" data-name="Group 272" transform="translate(-0.004 -0.025)">
      <path id="Path_721" data-name="Path 721" d="M28.814,57.82l1.336,2.339H44.2A18.491,18.491,0,0,1,22.712,58.91a18.693,18.693,0,0,1-3.6-3.939L32.594,31.92l.123-.211L31.363,29.3,17.613,52.791,16.4,54.884l.035.07a19.854,19.854,0,0,0,1.284,1.969,21.127,21.127,0,0,0,3.552,3.745A20.575,20.575,0,0,0,34.3,65.311h.545a20.572,20.572,0,0,0,13.187-5.2,20.111,20.111,0,0,0,2-2.057l.211-.246Z" transform="translate(-13.516 -24.144)" fill="#052b54"/>
      <path id="Path_722" data-name="Path 722" d="M12.129,9.175,9.439,9.14l-7.156,12.1A18.36,18.36,0,0,1,19.531,2.3L32.508,25.651l.123.211,2.761.053L22.169,2.089,20.991-.021H20.9a17.744,17.744,0,0,0-2.356.105,20.313,20.313,0,0,0-5.029,1.16A20.588,20.588,0,0,0,2.88,10.107l-.264.475A20.687,20.687,0,0,0,1.1,27.357l.105.316Z" transform="translate(0.004 0.025)" fill="#052b54"/>
      <path id="Path_723" data-name="Path 723" d="M74.9,18.715l1.336-2.339-7.1-12.132a18.346,18.346,0,0,1,8.194,24.265H50.372L49,30.918H78.663l.035-.07a19.673,19.673,0,0,0,1.055-2.11A20.762,20.762,0,0,0,81.2,23.779,20.517,20.517,0,0,0,78.61,10.187c-.088-.158-.193-.316-.281-.457A20.688,20.688,0,0,0,67.164.956a22.166,22.166,0,0,0-2.778-.7L64.069.2Z" transform="translate(-40.383 -0.16)" fill="#052b54"/>
    </g>
    <g id="Group_273" data-name="Group 273" transform="translate(132.188 13.237)">
      <path id="Path_724" data-name="Path 724" d="M758.323,88.613a6.359,6.359,0,1,1,0-12.713,6.308,6.308,0,0,1,6.453,6.418A6.4,6.4,0,0,1,758.323,88.613Zm0-11.64a5.173,5.173,0,0,0-5.293,5.222,5.35,5.35,0,0,0,5.187,5.363,5.293,5.293,0,0,0,.106-10.585Z" transform="translate(-751.8 -75.812)" fill="#052b54"/>
      <path id="Path_725" data-name="Path 725" d="M859.143,78.407l.018,9.565H858V75.4l9.389,10V75.716h1.161l-.018,12.678Z" transform="translate(-839.327 -75.4)" fill="#052b54"/>
      <path id="Path_726" data-name="Path 726" d="M954.8,89.438V77.2h1.161V88.4h5.222v1.037H954.8Z" transform="translate(-919.106 -76.883)" fill="#052b54"/>
      <path id="Path_727" data-name="Path 727" d="M1020.6,89.456V77.2h1.161V89.456Z" transform="translate(-973.336 -76.883)" fill="#052b54"/>
      <path id="Path_728" data-name="Path 728" d="M1065.243,78.407l.018,9.565H1064.1V75.4l9.39,10V75.716h1.161l-.018,12.678Z" transform="translate(-1009.187 -75.4)" fill="#052b54"/>
      <path id="Path_729" data-name="Path 729" d="M1160.9,89.52V77.3h6.365v1.037h-5.2v4.114h4.185v1.055h-4.185V88.5h5.714v1.037H1160.9Z" transform="translate(-1088.967 -76.966)" fill="#052b54"/>
    </g>
    <path id="Path_730" data-name="Path 730" d="M279.1,78.759a2.4,2.4,0,0,0-2-1.037c-1.284,0-1.688.809-1.688,1.424a1.02,1.02,0,0,0,.387.826,4.288,4.288,0,0,0,1.459.7,7.44,7.44,0,0,1,2.479,1.231,3.335,3.335,0,0,1,1.037,2.567,3.927,3.927,0,0,1-4.255,4.009,5.064,5.064,0,0,1-4.22-2.3l1.565-1.495a2.858,2.858,0,0,0,2.567,1.635,1.709,1.709,0,0,0,1.881-1.688,1.428,1.428,0,0,0-.475-1.108,5.346,5.346,0,0,0-1.881-.9,5.87,5.87,0,0,1-2.04-1.073,2.832,2.832,0,0,1-.967-2.268,3.554,3.554,0,0,1,3.921-3.587,4.686,4.686,0,0,1,3.464,1.424Z" transform="translate(-224.424 -62.41)" fill="#052b54"/>
    <path id="Path_731" data-name="Path 731" d="M329.691,77.3V89.538H327.3V77.3Z" transform="translate(-269.753 -63.729)" fill="#052b54"/>
    <path id="Path_732" data-name="Path 732" d="M348.725,82.985,345.068,77.2h2.866l2.145,3.8,2.251-3.8H355.2l-3.763,5.785,4.185,6.453H352.77L350.1,84.954l-2.831,4.484H344.4Z" transform="translate(-283.847 -63.646)" fill="#052b54"/>
    <path id="Path_733" data-name="Path 733" d="M434.5,78.759a2.4,2.4,0,0,0-2-1.037c-1.284,0-1.688.809-1.688,1.424a1.02,1.02,0,0,0,.387.826,4.288,4.288,0,0,0,1.459.7,7.44,7.44,0,0,1,2.479,1.231,3.335,3.335,0,0,1,1.037,2.567,3.927,3.927,0,0,1-4.255,4.009,5.064,5.064,0,0,1-4.22-2.3l1.565-1.495a2.858,2.858,0,0,0,2.567,1.635,1.709,1.709,0,0,0,1.881-1.688,1.428,1.428,0,0,0-.475-1.108,5.346,5.346,0,0,0-1.881-.9,5.87,5.87,0,0,1-2.04-1.073,2.832,2.832,0,0,1-.967-2.268,3.554,3.554,0,0,1,3.921-3.587,4.687,4.687,0,0,1,3.464,1.424Z" transform="translate(-352.5 -62.41)" fill="#052b54"/>
    <path id="Path_734" data-name="Path 734" d="M484.991,77.3V89.538H482.6V77.3Z" transform="translate(-397.747 -63.729)" fill="#052b54"/>
    <path id="Path_735" data-name="Path 735" d="M510.37,81.661h5.609V81.8a7.345,7.345,0,0,1-1.793,5.064,6.7,6.7,0,0,1-8.774-.035,6.579,6.579,0,0,1-1.811-4.712,6.31,6.31,0,0,1,1.793-4.554,6.536,6.536,0,0,1,4.818-1.864,5.834,5.834,0,0,1,2.831.651,5.736,5.736,0,0,1,2.286,2.233l-2.075,1.125a3.244,3.244,0,0,0-1.424-1.442,3.917,3.917,0,0,0-1.723-.387,4.152,4.152,0,0,0-2.831,1.09,4.54,4.54,0,0,0-1.231,3.235,4.148,4.148,0,0,0,1.213,3.095,3.755,3.755,0,0,0,2.708,1.037,4.139,4.139,0,0,0,2.409-.738,3.318,3.318,0,0,0,1.16-1.864h-3.147V81.661Z" transform="translate(-415.054 -62.41)" fill="#052b54"/>
    <path id="Path_736" data-name="Path 736" d="M580.086,77.3h1.723l3.253,7.772,3.394-7.772h1.723l2.057,12.238h-2.444l-1.108-7.543L585.4,89.538h-.809l-3.112-7.543-1.248,7.543H577.8Z" transform="translate(-476.207 -63.729)" fill="#052b54"/>
    <path id="Path_737" data-name="Path 737" d="M670.916,86.871h-4.941l-1.09,2.567H662.3L667.557,77.2h1.9l5.117,12.238h-2.567Zm-.686-1.934-1.741-4.4-1.741,4.4Z" transform="translate(-545.849 -63.646)" fill="#052b54"/>
  </g>
</svg>
